<?xml version="1.0" encoding="utf-8" standalone="no"?>
<!DOCTYPE svg PUBLIC "-//W3C//DTD SVG 1.1//EN"
  "http://www.w3.org/Graphics/SVG/1.1/DTD/svg11.dtd">
<!-- Created with matplotlib (https://matplotlib.org/) -->
<svg height="274.25875pt" version="1.1" viewBox="0 0 503.164375 274.25875" width="503.164375pt" xmlns="http://www.w3.org/2000/svg" xmlns:xlink="http://www.w3.org/1999/xlink">
 <metadata>
  <rdf:RDF xmlns:cc="http://creativecommons.org/ns#" xmlns:dc="http://purl.org/dc/elements/1.1/" xmlns:rdf="http://www.w3.org/1999/02/22-rdf-syntax-ns#">
   <cc:Work>
    <dc:type rdf:resource="http://purl.org/dc/dcmitype/StillImage"/>
    <dc:date>2021-05-25T20:58:04.063274</dc:date>
    <dc:format>image/svg+xml</dc:format>
    <dc:creator>
     <cc:Agent>
      <dc:title>Matplotlib v3.3.3, https://matplotlib.org/</dc:title>
     </cc:Agent>
    </dc:creator>
   </cc:Work>
  </rdf:RDF>
 </metadata>
 <defs>
  <style type="text/css">*{stroke-linecap:butt;stroke-linejoin:round;}</style>
 </defs>
 <g id="figure_1">
  <g id="patch_1">
   <path d="M 0 274.25875 
L 503.164375 274.25875 
L 503.164375 0 
L 0 0 
z
" style="fill:none;"/>
  </g>
  <g id="axes_1">
   <g id="patch_2">
    <path d="M 49.564375 228.96 
L 495.964375 228.96 
L 495.964375 7.2 
L 49.564375 7.2 
z
" style="fill:none;"/>
   </g>
   <g id="PolyCollection_1">
    <defs>
     <path d="M 69.855284 -45.300428 
L 69.855284 -45.29875 
L 71.894571 -45.29875 
L 73.933859 -45.29875 
L 75.973146 -45.29875 
L 78.012433 -45.29875 
L 80.051721 -45.29875 
L 82.091008 -45.29875 
L 84.130296 -45.29875 
L 86.169583 -45.29875 
L 88.20887 -45.29875 
L 90.248158 -45.29875 
L 92.287445 -45.29875 
L 94.326732 -45.29875 
L 96.36602 -45.29875 
L 98.405307 -45.29875 
L 100.444594 -45.29875 
L 102.483882 -45.29875 
L 104.523169 -45.29875 
L 106.562456 -45.29875 
L 108.601744 -45.29875 
L 110.641031 -45.29875 
L 112.680318 -45.29875 
L 114.719606 -45.29875 
L 116.758893 -45.29875 
L 118.79818 -45.29875 
L 120.837468 -45.29875 
L 122.876755 -45.29875 
L 124.916042 -45.29875 
L 126.95533 -45.29875 
L 128.994617 -45.29875 
L 131.033904 -45.29875 
L 133.073192 -45.29875 
L 135.112479 -45.29875 
L 137.151767 -45.29875 
L 139.191054 -45.29875 
L 141.230341 -45.29875 
L 143.269629 -45.29875 
L 145.308916 -45.29875 
L 147.348203 -45.29875 
L 149.387491 -45.29875 
L 151.426778 -45.29875 
L 153.466065 -45.29875 
L 155.505353 -45.29875 
L 157.54464 -45.29875 
L 159.583927 -45.29875 
L 161.623215 -45.29875 
L 163.662502 -45.29875 
L 165.701789 -45.29875 
L 167.741077 -45.29875 
L 169.780364 -45.29875 
L 171.819651 -45.29875 
L 173.858939 -45.29875 
L 175.898226 -45.29875 
L 177.937513 -45.29875 
L 179.976801 -45.29875 
L 182.016088 -45.29875 
L 184.055375 -45.29875 
L 186.094663 -45.29875 
L 188.13395 -45.29875 
L 190.173237 -45.29875 
L 192.212525 -45.29875 
L 194.251812 -45.29875 
L 194.251812 -188.239172 
L 194.251812 -188.239172 
L 192.212525 -180.339939 
L 190.173237 -172.528918 
L 188.13395 -165.257651 
L 186.094663 -158.659537 
L 184.055375 -152.522771 
L 182.016088 -146.46442 
L 179.976801 -140.186256 
L 177.937513 -133.656951 
L 175.898226 -127.103977 
L 173.858939 -120.818795 
L 171.819651 -114.930498 
L 169.780364 -109.342763 
L 167.741077 -103.882983 
L 165.701789 -98.514167 
L 163.662502 -93.413542 
L 161.623215 -88.860824 
L 159.583927 -85.047984 
L 157.54464 -81.966668 
L 155.505353 -79.437906 
L 153.466065 -77.227728 
L 151.426778 -75.147742 
L 149.387491 -73.086909 
L 147.348203 -70.992442 
L 145.308916 -68.847065 
L 143.269629 -66.666964 
L 141.230341 -64.506213 
L 139.191054 -62.441245 
L 137.151767 -60.53343 
L 135.112479 -58.796533 
L 133.073192 -57.193927 
L 131.033904 -55.665343 
L 128.994617 -54.165295 
L 126.95533 -52.692984 
L 124.916042 -51.2971 
L 122.876755 -50.050666 
L 120.837468 -49.011995 
L 118.79818 -48.198871 
L 116.758893 -47.589194 
L 114.719606 -47.138746 
L 112.680318 -46.800226 
L 110.641031 -46.536065 
L 108.601744 -46.323826 
L 106.562456 -46.153225 
L 104.523169 -46.017105 
L 102.483882 -45.904882 
L 100.444594 -45.80514 
L 98.405307 -45.713536 
L 96.36602 -45.636056 
L 94.326732 -45.583331 
L 92.287445 -45.560747 
L 90.248158 -45.561716 
L 88.20887 -45.568642 
L 86.169583 -45.561648 
L 84.130296 -45.529919 
L 82.091008 -45.47742 
L 80.051721 -45.418557 
L 78.012433 -45.368007 
L 75.973146 -45.333156 
L 73.933859 -45.313416 
L 71.894571 -45.304109 
L 69.855284 -45.300428 
z
" id="mf54a35db87" style="stroke:#008000;stroke-opacity:0.8;"/>
    </defs>
    <g clip-path="url(#p296ccde279)">
     <use style="fill:#008000;fill-opacity:0.8;stroke:#008000;stroke-opacity:0.8;" x="0" xlink:href="#mf54a35db87" y="274.25875"/>
    </g>
   </g>
   <g id="PolyCollection_2">
    <defs>
     <path d="M 194.251812 -188.239172 
L 194.251812 -45.29875 
L 196.2911 -45.29875 
L 198.330387 -45.29875 
L 200.369674 -45.29875 
L 202.408962 -45.29875 
L 204.448249 -45.29875 
L 206.487536 -45.29875 
L 208.526824 -45.29875 
L 210.566111 -45.29875 
L 212.605398 -45.29875 
L 214.644686 -45.29875 
L 216.683973 -45.29875 
L 216.683973 -244.29084 
L 216.683973 -244.29084 
L 214.644686 -240.972754 
L 212.605398 -236.884686 
L 210.566111 -232.308139 
L 208.526824 -227.573159 
L 206.487536 -222.861173 
L 204.448249 -218.161384 
L 202.408962 -213.330861 
L 200.369674 -208.144265 
L 198.330387 -202.331378 
L 196.2911 -195.686282 
L 194.251812 -188.239172 
z
" id="me9d12a82cc" style="stroke:#98fb98;stroke-opacity:0.8;"/>
    </defs>
    <g clip-path="url(#p296ccde279)">
     <use style="fill:#98fb98;fill-opacity:0.8;stroke:#98fb98;stroke-opacity:0.8;" x="0" xlink:href="#me9d12a82cc" y="274.25875"/>
    </g>
   </g>
   <g id="PolyCollection_3">
    <defs>
     <path d="M 216.683973 -244.29084 
L 216.683973 -45.29875 
L 218.72326 -45.29875 
L 220.762548 -45.29875 
L 222.801835 -45.29875 
L 224.841122 -45.29875 
L 226.88041 -45.29875 
L 228.919697 -45.29875 
L 230.958984 -45.29875 
L 232.998272 -45.29875 
L 232.998272 -255.532216 
L 232.998272 -255.532216 
L 230.958984 -256.49875 
L 228.919697 -256.038602 
L 226.88041 -254.585687 
L 224.841122 -252.678246 
L 222.801835 -250.724338 
L 220.762548 -248.840173 
L 218.72326 -246.820878 
L 216.683973 -244.29084 
z
" id="m9532c9693a" style="stroke:#eee8aa;stroke-opacity:0.8;"/>
    </defs>
    <g clip-path="url(#p296ccde279)">
     <use style="fill:#eee8aa;fill-opacity:0.8;stroke:#eee8aa;stroke-opacity:0.8;" x="0" xlink:href="#m9532c9693a" y="274.25875"/>
    </g>
   </g>
   <g id="PolyCollection_4">
    <defs>
     <path d="M 232.998272 -255.532216 
L 232.998272 -45.29875 
L 235.037559 -45.29875 
L 237.076846 -45.29875 
L 239.116134 -45.29875 
L 241.155421 -45.29875 
L 243.194708 -45.29875 
L 245.233996 -45.29875 
L 247.273283 -45.29875 
L 249.312571 -45.29875 
L 251.351858 -45.29875 
L 253.391145 -45.29875 
L 253.391145 -201.237075 
L 253.391145 -201.237075 
L 251.351858 -208.781338 
L 249.312571 -215.836883 
L 247.273283 -222.437874 
L 245.233996 -228.604742 
L 243.194708 -234.341021 
L 241.155421 -239.690131 
L 239.116134 -244.700029 
L 237.076846 -249.2651 
L 235.037559 -253.030086 
L 232.998272 -255.532216 
z
" id="m151df2c66a" style="stroke:#f08080;stroke-opacity:0.8;"/>
    </defs>
    <g clip-path="url(#p296ccde279)">
     <use style="fill:#f08080;fill-opacity:0.8;stroke:#f08080;stroke-opacity:0.8;" x="0" xlink:href="#m151df2c66a" y="274.25875"/>
    </g>
   </g>
   <g id="PolyCollection_5">
    <defs>
     <path d="M 253.391145 -201.237075 
L 253.391145 -45.29875 
L 255.430433 -45.29875 
L 257.46972 -45.29875 
L 259.509007 -45.29875 
L 261.548295 -45.29875 
L 263.587582 -45.29875 
L 265.626869 -45.29875 
L 267.666157 -45.29875 
L 269.705444 -45.29875 
L 271.744731 -45.29875 
L 273.784019 -45.29875 
L 275.823306 -45.29875 
L 277.862593 -45.29875 
L 279.901881 -45.29875 
L 281.941168 -45.29875 
L 283.980455 -45.29875 
L 286.019743 -45.29875 
L 288.05903 -45.29875 
L 290.098317 -45.29875 
L 292.137605 -45.29875 
L 294.176892 -45.29875 
L 296.216179 -45.29875 
L 298.255467 -45.29875 
L 300.294754 -45.29875 
L 302.334042 -45.29875 
L 304.373329 -45.29875 
L 306.412616 -45.29875 
L 308.451904 -45.29875 
L 310.491191 -45.29875 
L 312.530478 -45.29875 
L 314.569766 -45.29875 
L 316.609053 -45.29875 
L 318.64834 -45.29875 
L 320.687628 -45.29875 
L 322.726915 -45.29875 
L 324.766202 -45.29875 
L 326.80549 -45.29875 
L 328.844777 -45.29875 
L 330.884064 -45.29875 
L 332.923352 -45.29875 
L 334.962639 -45.29875 
L 337.001926 -45.29875 
L 339.041214 -45.29875 
L 341.080501 -45.29875 
L 343.119788 -45.29875 
L 345.159076 -45.29875 
L 347.198363 -45.29875 
L 349.23765 -45.29875 
L 351.276938 -45.29875 
L 353.316225 -45.29875 
L 355.355513 -45.29875 
L 357.3948 -45.29875 
L 359.434087 -45.29875 
L 361.473375 -45.29875 
L 363.512662 -45.29875 
L 365.551949 -45.29875 
L 367.591237 -45.29875 
L 369.630524 -45.29875 
L 371.669811 -45.29875 
L 373.709099 -45.29875 
L 375.748386 -45.29875 
L 377.787673 -45.29875 
L 379.826961 -45.29875 
L 381.866248 -45.29875 
L 383.905535 -45.29875 
L 385.944823 -45.29875 
L 387.98411 -45.29875 
L 390.023397 -45.29875 
L 392.062685 -45.29875 
L 394.101972 -45.29875 
L 396.141259 -45.29875 
L 398.180547 -45.29875 
L 400.219834 -45.29875 
L 402.259121 -45.29875 
L 404.298409 -45.29875 
L 406.337696 -45.29875 
L 408.376983 -45.29875 
L 410.416271 -45.29875 
L 412.455558 -45.29875 
L 414.494846 -45.29875 
L 416.534133 -45.29875 
L 418.57342 -45.29875 
L 420.612708 -45.29875 
L 422.651995 -45.29875 
L 424.691282 -45.29875 
L 426.73057 -45.29875 
L 428.769857 -45.29875 
L 430.809144 -45.29875 
L 432.848432 -45.29875 
L 434.887719 -45.29875 
L 436.927006 -45.29875 
L 438.966294 -45.29875 
L 441.005581 -45.29875 
L 443.044868 -45.29875 
L 445.084156 -45.29875 
L 447.123443 -45.29875 
L 449.16273 -45.29875 
L 451.202018 -45.29875 
L 453.241305 -45.29875 
L 455.280592 -45.29875 
L 457.31988 -45.29875 
L 459.359167 -45.29875 
L 461.398454 -45.29875 
L 463.437742 -45.29875 
L 465.477029 -45.29875 
L 467.516317 -45.29875 
L 469.555604 -45.29875 
L 471.594891 -45.29875 
L 473.634179 -45.29875 
L 475.673466 -45.29875 
L 475.673466 -45.29964 
L 475.673466 -45.29964 
L 473.634179 -45.30146 
L 471.594891 -45.305799 
L 469.555604 -45.314414 
L 467.516317 -45.328514 
L 465.477029 -45.347206 
L 463.437742 -45.366647 
L 461.398454 -45.381486 
L 459.359167 -45.38838 
L 457.31988 -45.388688 
L 455.280592 -45.387241 
L 453.241305 -45.387729 
L 451.202018 -45.389082 
L 449.16273 -45.386521 
L 447.123443 -45.376215 
L 445.084156 -45.358869 
L 443.044868 -45.339129 
L 441.005581 -45.322136 
L 438.966294 -45.310782 
L 436.927006 -45.305727 
L 434.887719 -45.307564 
L 432.848432 -45.319388 
L 430.809144 -45.348065 
L 428.769857 -45.402406 
L 426.73057 -45.487167 
L 424.691282 -45.594943 
L 422.651995 -45.702509 
L 420.612708 -45.777992 
L 418.57342 -45.797088 
L 416.534133 -45.756981 
L 414.494846 -45.676985 
L 412.455558 -45.586281 
L 410.416271 -45.509017 
L 408.376983 -45.456025 
L 406.337696 -45.425014 
L 404.298409 -45.406186 
L 402.259121 -45.38949 
L 400.219834 -45.369974 
L 398.180547 -45.348812 
L 396.141259 -45.330564 
L 394.101972 -45.320034 
L 392.062685 -45.321605 
L 390.023397 -45.340775 
L 387.98411 -45.384963 
L 385.944823 -45.460725 
L 383.905535 -45.567496 
L 381.866248 -45.692395 
L 379.826961 -45.812517 
L 377.787673 -45.906482 
L 375.748386 -45.968252 
L 373.709099 -46.012258 
L 371.669811 -46.065175 
L 369.630524 -46.149927 
L 367.591237 -46.271851 
L 365.551949 -46.414427 
L 363.512662 -46.547357 
L 361.473375 -46.643753 
L 359.434087 -46.695816 
L 357.3948 -46.717156 
L 355.355513 -46.730276 
L 353.316225 -46.751033 
L 351.276938 -46.78361 
L 349.23765 -46.828205 
L 347.198363 -46.891412 
L 345.159076 -46.987123 
L 343.119788 -47.124827 
L 341.080501 -47.29515 
L 339.041214 -47.467861 
L 337.001926 -47.608286 
L 334.962639 -47.701776 
L 332.923352 -47.768767 
L 330.884064 -47.861229 
L 328.844777 -48.044689 
L 326.80549 -48.376326 
L 324.766202 -48.887489 
L 322.726915 -49.574868 
L 320.687628 -50.403055 
L 318.64834 -51.319734 
L 316.609053 -52.278507 
L 314.569766 -53.256964 
L 312.530478 -54.259013 
L 310.491191 -55.302233 
L 308.451904 -56.4025 
L 306.412616 -57.571699 
L 304.373329 -58.84027 
L 302.334042 -60.301045 
L 300.294754 -62.142506 
L 298.255467 -64.622605 
L 296.216179 -67.967401 
L 294.176892 -72.252801 
L 292.137605 -77.362858 
L 290.098317 -83.053754 
L 288.05903 -89.050644 
L 286.019743 -95.094175 
L 283.980455 -100.951853 
L 281.941168 -106.473014 
L 279.901881 -111.687328 
L 277.862593 -116.830434 
L 275.823306 -122.21335 
L 273.784019 -128.024822 
L 271.744731 -134.247436 
L 269.705444 -140.749519 
L 267.666157 -147.43512 
L 265.626869 -154.311974 
L 263.587582 -161.460473 
L 261.548295 -168.967207 
L 259.509007 -176.857142 
L 257.46972 -185.031255 
L 255.430433 -193.25364 
L 253.391145 -201.237075 
z
" id="m0a5ecdbeda" style="stroke:#d62728;stroke-opacity:0.8;"/>
    </defs>
    <g clip-path="url(#p296ccde279)">
     <use style="fill:#d62728;fill-opacity:0.8;stroke:#d62728;stroke-opacity:0.8;" x="0" xlink:href="#m0a5ecdbeda" y="274.25875"/>
    </g>
   </g>
   <g id="matplotlib.axis_1">
    <g id="xtick_1">
     <g id="line2d_1">
      <defs>
       <path d="M 0 0 
L 0 3.5 
" id="ma3aebfb1bd" style="stroke:#000000;stroke-width:0.8;"/>
      </defs>
      <g>
       <use style="stroke:#000000;stroke-width:0.8;" x="106.70582" xlink:href="#ma3aebfb1bd" y="228.96"/>
      </g>
     </g>
     <g id="text_1">
      <!-- 0.1 -->
      <g transform="translate(95.573632 246.597812)scale(0.14 -0.14)">
       <defs>
        <path d="M 31.78125 66.40625 
Q 24.171875 66.40625 20.328125 58.90625 
Q 16.5 51.421875 16.5 36.375 
Q 16.5 21.390625 20.328125 13.890625 
Q 24.171875 6.390625 31.78125 6.390625 
Q 39.453125 6.390625 43.28125 13.890625 
Q 47.125 21.390625 47.125 36.375 
Q 47.125 51.421875 43.28125 58.90625 
Q 39.453125 66.40625 31.78125 66.40625 
z
M 31.78125 74.21875 
Q 44.046875 74.21875 50.515625 64.515625 
Q 56.984375 54.828125 56.984375 36.375 
Q 56.984375 17.96875 50.515625 8.265625 
Q 44.046875 -1.421875 31.78125 -1.421875 
Q 19.53125 -1.421875 13.0625 8.265625 
Q 6.59375 17.96875 6.59375 36.375 
Q 6.59375 54.828125 13.0625 64.515625 
Q 19.53125 74.21875 31.78125 74.21875 
z
" id="DejaVuSans-48"/>
        <path d="M 10.6875 12.40625 
L 21 12.40625 
L 21 0 
L 10.6875 0 
z
" id="DejaVuSans-46"/>
        <path d="M 12.40625 8.296875 
L 28.515625 8.296875 
L 28.515625 63.921875 
L 10.984375 60.40625 
L 10.984375 69.390625 
L 28.421875 72.90625 
L 38.28125 72.90625 
L 38.28125 8.296875 
L 54.390625 8.296875 
L 54.390625 0 
L 12.40625 0 
z
" id="DejaVuSans-49"/>
       </defs>
       <use xlink:href="#DejaVuSans-48"/>
       <use x="63.623047" xlink:href="#DejaVuSans-46"/>
       <use x="95.410156" xlink:href="#DejaVuSans-49"/>
      </g>
     </g>
    </g>
    <g id="xtick_2">
     <g id="line2d_2">
      <g>
       <use style="stroke:#000000;stroke-width:0.8;" x="199.997143" xlink:href="#ma3aebfb1bd" y="228.96"/>
      </g>
     </g>
     <g id="text_2">
      <!-- 0.2 -->
      <g transform="translate(188.864955 246.597812)scale(0.14 -0.14)">
       <defs>
        <path d="M 19.1875 8.296875 
L 53.609375 8.296875 
L 53.609375 0 
L 7.328125 0 
L 7.328125 8.296875 
Q 12.9375 14.109375 22.625 23.890625 
Q 32.328125 33.6875 34.8125 36.53125 
Q 39.546875 41.84375 41.421875 45.53125 
Q 43.3125 49.21875 43.3125 52.78125 
Q 43.3125 58.59375 39.234375 62.25 
Q 35.15625 65.921875 28.609375 65.921875 
Q 23.96875 65.921875 18.8125 64.3125 
Q 13.671875 62.703125 7.8125 59.421875 
L 7.8125 69.390625 
Q 13.765625 71.78125 18.9375 73 
Q 24.125 74.21875 28.421875 74.21875 
Q 39.75 74.21875 46.484375 68.546875 
Q 53.21875 62.890625 53.21875 53.421875 
Q 53.21875 48.921875 51.53125 44.890625 
Q 49.859375 40.875 45.40625 35.40625 
Q 44.1875 33.984375 37.640625 27.21875 
Q 31.109375 20.453125 19.1875 8.296875 
z
" id="DejaVuSans-50"/>
       </defs>
       <use xlink:href="#DejaVuSans-48"/>
       <use x="63.623047" xlink:href="#DejaVuSans-46"/>
       <use x="95.410156" xlink:href="#DejaVuSans-50"/>
      </g>
     </g>
    </g>
    <g id="xtick_3">
     <g id="line2d_3">
      <g>
       <use style="stroke:#000000;stroke-width:0.8;" x="293.288466" xlink:href="#ma3aebfb1bd" y="228.96"/>
      </g>
     </g>
     <g id="text_3">
      <!-- 0.3 -->
      <g transform="translate(282.156279 246.597812)scale(0.14 -0.14)">
       <defs>
        <path d="M 40.578125 39.3125 
Q 47.65625 37.796875 51.625 33 
Q 55.609375 28.21875 55.609375 21.1875 
Q 55.609375 10.40625 48.1875 4.484375 
Q 40.765625 -1.421875 27.09375 -1.421875 
Q 22.515625 -1.421875 17.65625 -0.515625 
Q 12.796875 0.390625 7.625 2.203125 
L 7.625 11.71875 
Q 11.71875 9.328125 16.59375 8.109375 
Q 21.484375 6.890625 26.8125 6.890625 
Q 36.078125 6.890625 40.9375 10.546875 
Q 45.796875 14.203125 45.796875 21.1875 
Q 45.796875 27.640625 41.28125 31.265625 
Q 36.765625 34.90625 28.71875 34.90625 
L 20.21875 34.90625 
L 20.21875 43.015625 
L 29.109375 43.015625 
Q 36.375 43.015625 40.234375 45.921875 
Q 44.09375 48.828125 44.09375 54.296875 
Q 44.09375 59.90625 40.109375 62.90625 
Q 36.140625 65.921875 28.71875 65.921875 
Q 24.65625 65.921875 20.015625 65.03125 
Q 15.375 64.15625 9.8125 62.3125 
L 9.8125 71.09375 
Q 15.4375 72.65625 20.34375 73.4375 
Q 25.25 74.21875 29.59375 74.21875 
Q 40.828125 74.21875 47.359375 69.109375 
Q 53.90625 64.015625 53.90625 55.328125 
Q 53.90625 49.265625 50.4375 45.09375 
Q 46.96875 40.921875 40.578125 39.3125 
z
" id="DejaVuSans-51"/>
       </defs>
       <use xlink:href="#DejaVuSans-48"/>
       <use x="63.623047" xlink:href="#DejaVuSans-46"/>
       <use x="95.410156" xlink:href="#DejaVuSans-51"/>
      </g>
     </g>
    </g>
    <g id="xtick_4">
     <g id="line2d_4">
      <g>
       <use style="stroke:#000000;stroke-width:0.8;" x="386.579789" xlink:href="#ma3aebfb1bd" y="228.96"/>
      </g>
     </g>
     <g id="text_4">
      <!-- 0.4 -->
      <g transform="translate(375.447602 246.597812)scale(0.14 -0.14)">
       <defs>
        <path d="M 37.796875 64.3125 
L 12.890625 25.390625 
L 37.796875 25.390625 
z
M 35.203125 72.90625 
L 47.609375 72.90625 
L 47.609375 25.390625 
L 58.015625 25.390625 
L 58.015625 17.1875 
L 47.609375 17.1875 
L 47.609375 0 
L 37.796875 0 
L 37.796875 17.1875 
L 4.890625 17.1875 
L 4.890625 26.703125 
z
" id="DejaVuSans-52"/>
       </defs>
       <use xlink:href="#DejaVuSans-48"/>
       <use x="63.623047" xlink:href="#DejaVuSans-46"/>
       <use x="95.410156" xlink:href="#DejaVuSans-52"/>
      </g>
     </g>
    </g>
    <g id="xtick_5">
     <g id="line2d_5">
      <g>
       <use style="stroke:#000000;stroke-width:0.8;" x="479.871112" xlink:href="#ma3aebfb1bd" y="228.96"/>
      </g>
     </g>
     <g id="text_5">
      <!-- 0.5 -->
      <g transform="translate(468.738925 246.597812)scale(0.14 -0.14)">
       <defs>
        <path d="M 10.796875 72.90625 
L 49.515625 72.90625 
L 49.515625 64.59375 
L 19.828125 64.59375 
L 19.828125 46.734375 
Q 21.96875 47.46875 24.109375 47.828125 
Q 26.265625 48.1875 28.421875 48.1875 
Q 40.625 48.1875 47.75 41.5 
Q 54.890625 34.8125 54.890625 23.390625 
Q 54.890625 11.625 47.5625 5.09375 
Q 40.234375 -1.421875 26.90625 -1.421875 
Q 22.3125 -1.421875 17.546875 -0.640625 
Q 12.796875 0.140625 7.71875 1.703125 
L 7.71875 11.625 
Q 12.109375 9.234375 16.796875 8.0625 
Q 21.484375 6.890625 26.703125 6.890625 
Q 35.15625 6.890625 40.078125 11.328125 
Q 45.015625 15.765625 45.015625 23.390625 
Q 45.015625 31 40.078125 35.4375 
Q 35.15625 39.890625 26.703125 39.890625 
Q 22.75 39.890625 18.8125 39.015625 
Q 14.890625 38.140625 10.796875 36.28125 
z
" id="DejaVuSans-53"/>
       </defs>
       <use xlink:href="#DejaVuSans-48"/>
       <use x="63.623047" xlink:href="#DejaVuSans-46"/>
       <use x="95.410156" xlink:href="#DejaVuSans-53"/>
      </g>
     </g>
    </g>
    <g id="text_6">
     <!-- R-Free -->
     <g transform="translate(250.801875 264.147187)scale(0.14 -0.14)">
      <defs>
       <path d="M 44.390625 34.1875 
Q 47.5625 33.109375 50.5625 29.59375 
Q 53.5625 26.078125 56.59375 19.921875 
L 66.609375 0 
L 56 0 
L 46.6875 18.703125 
Q 43.0625 26.03125 39.671875 28.421875 
Q 36.28125 30.8125 30.421875 30.8125 
L 19.671875 30.8125 
L 19.671875 0 
L 9.8125 0 
L 9.8125 72.90625 
L 32.078125 72.90625 
Q 44.578125 72.90625 50.734375 67.671875 
Q 56.890625 62.453125 56.890625 51.90625 
Q 56.890625 45.015625 53.6875 40.46875 
Q 50.484375 35.9375 44.390625 34.1875 
z
M 19.671875 64.796875 
L 19.671875 38.921875 
L 32.078125 38.921875 
Q 39.203125 38.921875 42.84375 42.21875 
Q 46.484375 45.515625 46.484375 51.90625 
Q 46.484375 58.296875 42.84375 61.546875 
Q 39.203125 64.796875 32.078125 64.796875 
z
" id="DejaVuSans-82"/>
       <path d="M 4.890625 31.390625 
L 31.203125 31.390625 
L 31.203125 23.390625 
L 4.890625 23.390625 
z
" id="DejaVuSans-45"/>
       <path d="M 9.8125 72.90625 
L 51.703125 72.90625 
L 51.703125 64.59375 
L 19.671875 64.59375 
L 19.671875 43.109375 
L 48.578125 43.109375 
L 48.578125 34.8125 
L 19.671875 34.8125 
L 19.671875 0 
L 9.8125 0 
z
" id="DejaVuSans-70"/>
       <path d="M 41.109375 46.296875 
Q 39.59375 47.171875 37.8125 47.578125 
Q 36.03125 48 33.890625 48 
Q 26.265625 48 22.1875 43.046875 
Q 18.109375 38.09375 18.109375 28.8125 
L 18.109375 0 
L 9.078125 0 
L 9.078125 54.6875 
L 18.109375 54.6875 
L 18.109375 46.1875 
Q 20.953125 51.171875 25.484375 53.578125 
Q 30.03125 56 36.53125 56 
Q 37.453125 56 38.578125 55.875 
Q 39.703125 55.765625 41.0625 55.515625 
z
" id="DejaVuSans-114"/>
       <path d="M 56.203125 29.59375 
L 56.203125 25.203125 
L 14.890625 25.203125 
Q 15.484375 15.921875 20.484375 11.0625 
Q 25.484375 6.203125 34.421875 6.203125 
Q 39.59375 6.203125 44.453125 7.46875 
Q 49.3125 8.734375 54.109375 11.28125 
L 54.109375 2.78125 
Q 49.265625 0.734375 44.1875 -0.34375 
Q 39.109375 -1.421875 33.890625 -1.421875 
Q 20.796875 -1.421875 13.15625 6.1875 
Q 5.515625 13.8125 5.515625 26.8125 
Q 5.515625 40.234375 12.765625 48.109375 
Q 20.015625 56 32.328125 56 
Q 43.359375 56 49.78125 48.890625 
Q 56.203125 41.796875 56.203125 29.59375 
z
M 47.21875 32.234375 
Q 47.125 39.59375 43.09375 43.984375 
Q 39.0625 48.390625 32.421875 48.390625 
Q 24.90625 48.390625 20.390625 44.140625 
Q 15.875 39.890625 15.1875 32.171875 
z
" id="DejaVuSans-101"/>
      </defs>
      <use xlink:href="#DejaVuSans-82"/>
      <use x="65.482422" xlink:href="#DejaVuSans-45"/>
      <use x="101.566406" xlink:href="#DejaVuSans-70"/>
      <use x="151.835938" xlink:href="#DejaVuSans-114"/>
      <use x="190.699219" xlink:href="#DejaVuSans-101"/>
      <use x="252.222656" xlink:href="#DejaVuSans-101"/>
     </g>
    </g>
   </g>
   <g id="matplotlib.axis_2">
    <g id="ytick_1">
     <g id="line2d_6">
      <defs>
       <path d="M 0 0 
L -3.5 0 
" id="mc50f722669" style="stroke:#000000;stroke-width:0.8;"/>
      </defs>
      <g>
       <use style="stroke:#000000;stroke-width:0.8;" x="49.564375" xlink:href="#mc50f722669" y="228.96"/>
      </g>
     </g>
     <g id="text_7">
      <!-- 0 -->
      <g transform="translate(33.656875 234.278906)scale(0.14 -0.14)">
       <use xlink:href="#DejaVuSans-48"/>
      </g>
     </g>
    </g>
    <g id="ytick_2">
     <g id="line2d_7">
      <g>
       <use style="stroke:#000000;stroke-width:0.8;" x="49.564375" xlink:href="#mc50f722669" y="188.522104"/>
      </g>
     </g>
     <g id="text_8">
      <!-- 2 -->
      <g transform="translate(33.656875 193.84101)scale(0.14 -0.14)">
       <use xlink:href="#DejaVuSans-50"/>
      </g>
     </g>
    </g>
    <g id="ytick_3">
     <g id="line2d_8">
      <g>
       <use style="stroke:#000000;stroke-width:0.8;" x="49.564375" xlink:href="#mc50f722669" y="148.084208"/>
      </g>
     </g>
     <g id="text_9">
      <!-- 4 -->
      <g transform="translate(33.656875 153.403114)scale(0.14 -0.14)">
       <use xlink:href="#DejaVuSans-52"/>
      </g>
     </g>
    </g>
    <g id="ytick_4">
     <g id="line2d_9">
      <g>
       <use style="stroke:#000000;stroke-width:0.8;" x="49.564375" xlink:href="#mc50f722669" y="107.646312"/>
      </g>
     </g>
     <g id="text_10">
      <!-- 6 -->
      <g transform="translate(33.656875 112.965218)scale(0.14 -0.14)">
       <defs>
        <path d="M 33.015625 40.375 
Q 26.375 40.375 22.484375 35.828125 
Q 18.609375 31.296875 18.609375 23.390625 
Q 18.609375 15.53125 22.484375 10.953125 
Q 26.375 6.390625 33.015625 6.390625 
Q 39.65625 6.390625 43.53125 10.953125 
Q 47.40625 15.53125 47.40625 23.390625 
Q 47.40625 31.296875 43.53125 35.828125 
Q 39.65625 40.375 33.015625 40.375 
z
M 52.59375 71.296875 
L 52.59375 62.3125 
Q 48.875 64.0625 45.09375 64.984375 
Q 41.3125 65.921875 37.59375 65.921875 
Q 27.828125 65.921875 22.671875 59.328125 
Q 17.53125 52.734375 16.796875 39.40625 
Q 19.671875 43.65625 24.015625 45.921875 
Q 28.375 48.1875 33.59375 48.1875 
Q 44.578125 48.1875 50.953125 41.515625 
Q 57.328125 34.859375 57.328125 23.390625 
Q 57.328125 12.15625 50.6875 5.359375 
Q 44.046875 -1.421875 33.015625 -1.421875 
Q 20.359375 -1.421875 13.671875 8.265625 
Q 6.984375 17.96875 6.984375 36.375 
Q 6.984375 53.65625 15.1875 63.9375 
Q 23.390625 74.21875 37.203125 74.21875 
Q 40.921875 74.21875 44.703125 73.484375 
Q 48.484375 72.75 52.59375 71.296875 
z
" id="DejaVuSans-54"/>
       </defs>
       <use xlink:href="#DejaVuSans-54"/>
      </g>
     </g>
    </g>
    <g id="ytick_5">
     <g id="line2d_10">
      <g>
       <use style="stroke:#000000;stroke-width:0.8;" x="49.564375" xlink:href="#mc50f722669" y="67.208416"/>
      </g>
     </g>
     <g id="text_11">
      <!-- 8 -->
      <g transform="translate(33.656875 72.527322)scale(0.14 -0.14)">
       <defs>
        <path d="M 31.78125 34.625 
Q 24.75 34.625 20.71875 30.859375 
Q 16.703125 27.09375 16.703125 20.515625 
Q 16.703125 13.921875 20.71875 10.15625 
Q 24.75 6.390625 31.78125 6.390625 
Q 38.8125 6.390625 42.859375 10.171875 
Q 46.921875 13.96875 46.921875 20.515625 
Q 46.921875 27.09375 42.890625 30.859375 
Q 38.875 34.625 31.78125 34.625 
z
M 21.921875 38.8125 
Q 15.578125 40.375 12.03125 44.71875 
Q 8.5 49.078125 8.5 55.328125 
Q 8.5 64.0625 14.71875 69.140625 
Q 20.953125 74.21875 31.78125 74.21875 
Q 42.671875 74.21875 48.875 69.140625 
Q 55.078125 64.0625 55.078125 55.328125 
Q 55.078125 49.078125 51.53125 44.71875 
Q 48 40.375 41.703125 38.8125 
Q 48.828125 37.15625 52.796875 32.3125 
Q 56.78125 27.484375 56.78125 20.515625 
Q 56.78125 9.90625 50.3125 4.234375 
Q 43.84375 -1.421875 31.78125 -1.421875 
Q 19.734375 -1.421875 13.25 4.234375 
Q 6.78125 9.90625 6.78125 20.515625 
Q 6.78125 27.484375 10.78125 32.3125 
Q 14.796875 37.15625 21.921875 38.8125 
z
M 18.3125 54.390625 
Q 18.3125 48.734375 21.84375 45.5625 
Q 25.390625 42.390625 31.78125 42.390625 
Q 38.140625 42.390625 41.71875 45.5625 
Q 45.3125 48.734375 45.3125 54.390625 
Q 45.3125 60.0625 41.71875 63.234375 
Q 38.140625 66.40625 31.78125 66.40625 
Q 25.390625 66.40625 21.84375 63.234375 
Q 18.3125 60.0625 18.3125 54.390625 
z
" id="DejaVuSans-56"/>
       </defs>
       <use xlink:href="#DejaVuSans-56"/>
      </g>
     </g>
    </g>
    <g id="ytick_6">
     <g id="line2d_11">
      <g>
       <use style="stroke:#000000;stroke-width:0.8;" x="49.564375" xlink:href="#mc50f722669" y="26.77052"/>
      </g>
     </g>
     <g id="text_12">
      <!-- 10 -->
      <g transform="translate(24.749375 32.089426)scale(0.14 -0.14)">
       <use xlink:href="#DejaVuSans-49"/>
       <use x="63.623047" xlink:href="#DejaVuSans-48"/>
      </g>
     </g>
    </g>
    <g id="text_13">
     <!-- Probability Density -->
     <g transform="translate(17.837813 183.917187)rotate(-90)scale(0.14 -0.14)">
      <defs>
       <path d="M 19.671875 64.796875 
L 19.671875 37.40625 
L 32.078125 37.40625 
Q 38.96875 37.40625 42.71875 40.96875 
Q 46.484375 44.53125 46.484375 51.125 
Q 46.484375 57.671875 42.71875 61.234375 
Q 38.96875 64.796875 32.078125 64.796875 
z
M 9.8125 72.90625 
L 32.078125 72.90625 
Q 44.34375 72.90625 50.609375 67.359375 
Q 56.890625 61.8125 56.890625 51.125 
Q 56.890625 40.328125 50.609375 34.8125 
Q 44.34375 29.296875 32.078125 29.296875 
L 19.671875 29.296875 
L 19.671875 0 
L 9.8125 0 
z
" id="DejaVuSans-80"/>
       <path d="M 30.609375 48.390625 
Q 23.390625 48.390625 19.1875 42.75 
Q 14.984375 37.109375 14.984375 27.296875 
Q 14.984375 17.484375 19.15625 11.84375 
Q 23.34375 6.203125 30.609375 6.203125 
Q 37.796875 6.203125 41.984375 11.859375 
Q 46.1875 17.53125 46.1875 27.296875 
Q 46.1875 37.015625 41.984375 42.703125 
Q 37.796875 48.390625 30.609375 48.390625 
z
M 30.609375 56 
Q 42.328125 56 49.015625 48.375 
Q 55.71875 40.765625 55.71875 27.296875 
Q 55.71875 13.875 49.015625 6.21875 
Q 42.328125 -1.421875 30.609375 -1.421875 
Q 18.84375 -1.421875 12.171875 6.21875 
Q 5.515625 13.875 5.515625 27.296875 
Q 5.515625 40.765625 12.171875 48.375 
Q 18.84375 56 30.609375 56 
z
" id="DejaVuSans-111"/>
       <path d="M 48.6875 27.296875 
Q 48.6875 37.203125 44.609375 42.84375 
Q 40.53125 48.484375 33.40625 48.484375 
Q 26.265625 48.484375 22.1875 42.84375 
Q 18.109375 37.203125 18.109375 27.296875 
Q 18.109375 17.390625 22.1875 11.75 
Q 26.265625 6.109375 33.40625 6.109375 
Q 40.53125 6.109375 44.609375 11.75 
Q 48.6875 17.390625 48.6875 27.296875 
z
M 18.109375 46.390625 
Q 20.953125 51.265625 25.265625 53.625 
Q 29.59375 56 35.59375 56 
Q 45.5625 56 51.78125 48.09375 
Q 58.015625 40.1875 58.015625 27.296875 
Q 58.015625 14.40625 51.78125 6.484375 
Q 45.5625 -1.421875 35.59375 -1.421875 
Q 29.59375 -1.421875 25.265625 0.953125 
Q 20.953125 3.328125 18.109375 8.203125 
L 18.109375 0 
L 9.078125 0 
L 9.078125 75.984375 
L 18.109375 75.984375 
z
" id="DejaVuSans-98"/>
       <path d="M 34.28125 27.484375 
Q 23.390625 27.484375 19.1875 25 
Q 14.984375 22.515625 14.984375 16.5 
Q 14.984375 11.71875 18.140625 8.90625 
Q 21.296875 6.109375 26.703125 6.109375 
Q 34.1875 6.109375 38.703125 11.40625 
Q 43.21875 16.703125 43.21875 25.484375 
L 43.21875 27.484375 
z
M 52.203125 31.203125 
L 52.203125 0 
L 43.21875 0 
L 43.21875 8.296875 
Q 40.140625 3.328125 35.546875 0.953125 
Q 30.953125 -1.421875 24.3125 -1.421875 
Q 15.921875 -1.421875 10.953125 3.296875 
Q 6 8.015625 6 15.921875 
Q 6 25.140625 12.171875 29.828125 
Q 18.359375 34.515625 30.609375 34.515625 
L 43.21875 34.515625 
L 43.21875 35.40625 
Q 43.21875 41.609375 39.140625 45 
Q 35.0625 48.390625 27.6875 48.390625 
Q 23 48.390625 18.546875 47.265625 
Q 14.109375 46.140625 10.015625 43.890625 
L 10.015625 52.203125 
Q 14.9375 54.109375 19.578125 55.046875 
Q 24.21875 56 28.609375 56 
Q 40.484375 56 46.34375 49.84375 
Q 52.203125 43.703125 52.203125 31.203125 
z
" id="DejaVuSans-97"/>
       <path d="M 9.421875 54.6875 
L 18.40625 54.6875 
L 18.40625 0 
L 9.421875 0 
z
M 9.421875 75.984375 
L 18.40625 75.984375 
L 18.40625 64.59375 
L 9.421875 64.59375 
z
" id="DejaVuSans-105"/>
       <path d="M 9.421875 75.984375 
L 18.40625 75.984375 
L 18.40625 0 
L 9.421875 0 
z
" id="DejaVuSans-108"/>
       <path d="M 18.3125 70.21875 
L 18.3125 54.6875 
L 36.8125 54.6875 
L 36.8125 47.703125 
L 18.3125 47.703125 
L 18.3125 18.015625 
Q 18.3125 11.328125 20.140625 9.421875 
Q 21.96875 7.515625 27.59375 7.515625 
L 36.8125 7.515625 
L 36.8125 0 
L 27.59375 0 
Q 17.1875 0 13.234375 3.875 
Q 9.28125 7.765625 9.28125 18.015625 
L 9.28125 47.703125 
L 2.6875 47.703125 
L 2.6875 54.6875 
L 9.28125 54.6875 
L 9.28125 70.21875 
z
" id="DejaVuSans-116"/>
       <path d="M 32.171875 -5.078125 
Q 28.375 -14.84375 24.75 -17.8125 
Q 21.140625 -20.796875 15.09375 -20.796875 
L 7.90625 -20.796875 
L 7.90625 -13.28125 
L 13.1875 -13.28125 
Q 16.890625 -13.28125 18.9375 -11.515625 
Q 21 -9.765625 23.484375 -3.21875 
L 25.09375 0.875 
L 2.984375 54.6875 
L 12.5 54.6875 
L 29.59375 11.921875 
L 46.6875 54.6875 
L 56.203125 54.6875 
z
" id="DejaVuSans-121"/>
       <path id="DejaVuSans-32"/>
       <path d="M 19.671875 64.796875 
L 19.671875 8.109375 
L 31.59375 8.109375 
Q 46.6875 8.109375 53.6875 14.9375 
Q 60.6875 21.78125 60.6875 36.53125 
Q 60.6875 51.171875 53.6875 57.984375 
Q 46.6875 64.796875 31.59375 64.796875 
z
M 9.8125 72.90625 
L 30.078125 72.90625 
Q 51.265625 72.90625 61.171875 64.09375 
Q 71.09375 55.28125 71.09375 36.53125 
Q 71.09375 17.671875 61.125 8.828125 
Q 51.171875 0 30.078125 0 
L 9.8125 0 
z
" id="DejaVuSans-68"/>
       <path d="M 54.890625 33.015625 
L 54.890625 0 
L 45.90625 0 
L 45.90625 32.71875 
Q 45.90625 40.484375 42.875 44.328125 
Q 39.84375 48.1875 33.796875 48.1875 
Q 26.515625 48.1875 22.3125 43.546875 
Q 18.109375 38.921875 18.109375 30.90625 
L 18.109375 0 
L 9.078125 0 
L 9.078125 54.6875 
L 18.109375 54.6875 
L 18.109375 46.1875 
Q 21.34375 51.125 25.703125 53.5625 
Q 30.078125 56 35.796875 56 
Q 45.21875 56 50.046875 50.171875 
Q 54.890625 44.34375 54.890625 33.015625 
z
" id="DejaVuSans-110"/>
       <path d="M 44.28125 53.078125 
L 44.28125 44.578125 
Q 40.484375 46.53125 36.375 47.5 
Q 32.28125 48.484375 27.875 48.484375 
Q 21.1875 48.484375 17.84375 46.4375 
Q 14.5 44.390625 14.5 40.28125 
Q 14.5 37.15625 16.890625 35.375 
Q 19.28125 33.59375 26.515625 31.984375 
L 29.59375 31.296875 
Q 39.15625 29.25 43.1875 25.515625 
Q 47.21875 21.78125 47.21875 15.09375 
Q 47.21875 7.46875 41.1875 3.015625 
Q 35.15625 -1.421875 24.609375 -1.421875 
Q 20.21875 -1.421875 15.453125 -0.5625 
Q 10.6875 0.296875 5.421875 2 
L 5.421875 11.28125 
Q 10.40625 8.6875 15.234375 7.390625 
Q 20.0625 6.109375 24.8125 6.109375 
Q 31.15625 6.109375 34.5625 8.28125 
Q 37.984375 10.453125 37.984375 14.40625 
Q 37.984375 18.0625 35.515625 20.015625 
Q 33.0625 21.96875 24.703125 23.78125 
L 21.578125 24.515625 
Q 13.234375 26.265625 9.515625 29.90625 
Q 5.8125 33.546875 5.8125 39.890625 
Q 5.8125 47.609375 11.28125 51.796875 
Q 16.75 56 26.8125 56 
Q 31.78125 56 36.171875 55.265625 
Q 40.578125 54.546875 44.28125 53.078125 
z
" id="DejaVuSans-115"/>
      </defs>
      <use xlink:href="#DejaVuSans-80"/>
      <use x="58.552734" xlink:href="#DejaVuSans-114"/>
      <use x="97.416016" xlink:href="#DejaVuSans-111"/>
      <use x="158.597656" xlink:href="#DejaVuSans-98"/>
      <use x="222.074219" xlink:href="#DejaVuSans-97"/>
      <use x="283.353516" xlink:href="#DejaVuSans-98"/>
      <use x="346.830078" xlink:href="#DejaVuSans-105"/>
      <use x="374.613281" xlink:href="#DejaVuSans-108"/>
      <use x="402.396484" xlink:href="#DejaVuSans-105"/>
      <use x="430.179688" xlink:href="#DejaVuSans-116"/>
      <use x="469.388672" xlink:href="#DejaVuSans-121"/>
      <use x="528.568359" xlink:href="#DejaVuSans-32"/>
      <use x="560.355469" xlink:href="#DejaVuSans-68"/>
      <use x="637.357422" xlink:href="#DejaVuSans-101"/>
      <use x="698.880859" xlink:href="#DejaVuSans-110"/>
      <use x="762.259766" xlink:href="#DejaVuSans-115"/>
      <use x="814.359375" xlink:href="#DejaVuSans-105"/>
      <use x="842.142578" xlink:href="#DejaVuSans-116"/>
      <use x="881.351562" xlink:href="#DejaVuSans-121"/>
     </g>
    </g>
   </g>
   <g id="line2d_12">
    <path clip-path="url(#p296ccde279)" d="M 69.855284 228.958322 
L 80.051721 228.840193 
L 88.20887 228.690108 
L 96.36602 228.622694 
L 104.523169 228.241645 
L 110.641031 227.722685 
L 114.719606 227.120004 
L 116.758893 226.669556 
L 118.79818 226.059879 
L 120.837468 225.246755 
L 122.876755 224.208084 
L 124.916042 222.96165 
L 128.994617 220.093455 
L 135.112479 215.462217 
L 137.151767 213.72532 
L 139.191054 211.817505 
L 143.269629 207.591786 
L 149.387491 201.171841 
L 153.466065 197.031022 
L 155.505353 194.820844 
L 157.54464 192.292082 
L 159.583927 189.210766 
L 161.623215 185.397926 
L 163.662502 180.845208 
L 167.741077 170.375767 
L 171.819651 159.328252 
L 173.858939 153.439955 
L 177.937513 140.601799 
L 182.016088 127.79433 
L 186.094663 115.599213 
L 188.13395 109.001099 
L 190.173237 101.729832 
L 196.2911 78.572468 
L 198.330387 71.927372 
L 200.369674 66.114485 
L 202.408962 60.927889 
L 208.526824 46.685591 
L 212.605398 37.374064 
L 214.644686 33.285996 
L 216.683973 29.96791 
L 218.72326 27.437872 
L 222.801835 23.534412 
L 226.88041 19.673063 
L 228.919697 18.220148 
L 230.958984 17.76 
L 232.998272 18.726534 
L 235.037559 21.228664 
L 237.076846 24.99365 
L 239.116134 29.558721 
L 241.155421 34.568619 
L 243.194708 39.917729 
L 245.233996 45.654008 
L 247.273283 51.820876 
L 249.312571 58.421867 
L 251.351858 65.477412 
L 253.391145 73.021675 
L 263.587582 112.798277 
L 267.666157 126.82363 
L 271.744731 140.011314 
L 273.784019 146.233928 
L 275.823306 152.0454 
L 279.901881 162.571422 
L 281.941168 167.785736 
L 283.980455 173.306897 
L 292.137605 196.895892 
L 294.176892 202.005949 
L 296.216179 206.291349 
L 298.255467 209.636145 
L 300.294754 212.116244 
L 302.334042 213.957705 
L 304.373329 215.41848 
L 308.451904 217.85625 
L 312.530478 219.999737 
L 318.64834 222.939016 
L 322.726915 224.683882 
L 324.766202 225.371261 
L 326.80549 225.882424 
L 328.844777 226.214061 
L 332.923352 226.489983 
L 339.041214 226.790889 
L 345.159076 227.271627 
L 351.276938 227.47514 
L 363.512662 227.711393 
L 371.669811 228.193575 
L 381.866248 228.566355 
L 387.98411 228.873787 
L 394.101972 228.938716 
L 410.416271 228.749733 
L 418.57342 228.461662 
L 422.651995 228.556241 
L 430.809144 228.910685 
L 438.966294 228.947968 
L 463.437742 228.892103 
L 475.673466 228.95911 
L 475.673466 228.95911 
" style="fill:none;stroke:#000000;stroke-linecap:square;stroke-width:1.5;"/>
   </g>
   <g id="patch_3">
    <path d="M 49.564375 228.96 
L 49.564375 7.2 
" style="fill:none;stroke:#000000;stroke-linecap:square;stroke-linejoin:miter;stroke-width:0.8;"/>
   </g>
   <g id="patch_4">
    <path d="M 495.964375 228.96 
L 495.964375 7.2 
" style="fill:none;stroke:#000000;stroke-linecap:square;stroke-linejoin:miter;stroke-width:0.8;"/>
   </g>
   <g id="patch_5">
    <path d="M 49.564375 228.96 
L 495.964375 228.96 
" style="fill:none;stroke:#000000;stroke-linecap:square;stroke-linejoin:miter;stroke-width:0.8;"/>
   </g>
   <g id="patch_6">
    <path d="M 49.564375 7.2 
L 495.964375 7.2 
" style="fill:none;stroke:#000000;stroke-linecap:square;stroke-linejoin:miter;stroke-width:0.8;"/>
   </g>
   <g id="text_14">
    <!-- Very Good -->
    <g style="fill:#98fb98;" transform="translate(184.710458 227.020426)rotate(-90)scale(0.12 -0.12)">
     <defs>
      <path d="M 28.609375 0 
L 0.78125 72.90625 
L 11.078125 72.90625 
L 34.1875 11.53125 
L 57.328125 72.90625 
L 67.578125 72.90625 
L 39.796875 0 
z
" id="DejaVuSans-86"/>
      <path d="M 59.515625 10.40625 
L 59.515625 29.984375 
L 43.40625 29.984375 
L 43.40625 38.09375 
L 69.28125 38.09375 
L 69.28125 6.78125 
Q 63.578125 2.734375 56.6875 0.65625 
Q 49.8125 -1.421875 42 -1.421875 
Q 24.90625 -1.421875 15.25 8.5625 
Q 5.609375 18.5625 5.609375 36.375 
Q 5.609375 54.25 15.25 64.234375 
Q 24.90625 74.21875 42 74.21875 
Q 49.125 74.21875 55.546875 72.453125 
Q 61.96875 70.703125 67.390625 67.28125 
L 67.390625 56.78125 
Q 61.921875 61.421875 55.765625 63.765625 
Q 49.609375 66.109375 42.828125 66.109375 
Q 29.4375 66.109375 22.71875 58.640625 
Q 16.015625 51.171875 16.015625 36.375 
Q 16.015625 21.625 22.71875 14.15625 
Q 29.4375 6.6875 42.828125 6.6875 
Q 48.046875 6.6875 52.140625 7.59375 
Q 56.25 8.5 59.515625 10.40625 
z
" id="DejaVuSans-71"/>
      <path d="M 45.40625 46.390625 
L 45.40625 75.984375 
L 54.390625 75.984375 
L 54.390625 0 
L 45.40625 0 
L 45.40625 8.203125 
Q 42.578125 3.328125 38.25 0.953125 
Q 33.9375 -1.421875 27.875 -1.421875 
Q 17.96875 -1.421875 11.734375 6.484375 
Q 5.515625 14.40625 5.515625 27.296875 
Q 5.515625 40.1875 11.734375 48.09375 
Q 17.96875 56 27.875 56 
Q 33.9375 56 38.25 53.625 
Q 42.578125 51.265625 45.40625 46.390625 
z
M 14.796875 27.296875 
Q 14.796875 17.390625 18.875 11.75 
Q 22.953125 6.109375 30.078125 6.109375 
Q 37.203125 6.109375 41.296875 11.75 
Q 45.40625 17.390625 45.40625 27.296875 
Q 45.40625 37.203125 41.296875 42.84375 
Q 37.203125 48.484375 30.078125 48.484375 
Q 22.953125 48.484375 18.875 42.84375 
Q 14.796875 37.203125 14.796875 27.296875 
z
" id="DejaVuSans-100"/>
     </defs>
     <use xlink:href="#DejaVuSans-86"/>
     <use x="60.658203" xlink:href="#DejaVuSans-101"/>
     <use x="122.181641" xlink:href="#DejaVuSans-114"/>
     <use x="163.294922" xlink:href="#DejaVuSans-121"/>
     <use x="222.474609" xlink:href="#DejaVuSans-32"/>
     <use x="254.261719" xlink:href="#DejaVuSans-71"/>
     <use x="331.751953" xlink:href="#DejaVuSans-111"/>
     <use x="392.933594" xlink:href="#DejaVuSans-111"/>
     <use x="454.115234" xlink:href="#DejaVuSans-100"/>
    </g>
   </g>
   <g id="text_15">
    <!-- Good -->
    <g style="fill:#008000;" transform="translate(204.491545 227.020426)rotate(-90)scale(0.12 -0.12)">
     <use xlink:href="#DejaVuSans-71"/>
     <use x="77.490234" xlink:href="#DejaVuSans-111"/>
     <use x="138.671875" xlink:href="#DejaVuSans-111"/>
     <use x="199.853516" xlink:href="#DejaVuSans-100"/>
    </g>
   </g>
   <g id="text_16">
    <!-- Medium -->
    <g style="fill:#808000;" transform="translate(226.617813 227.020426)rotate(-90)scale(0.12 -0.12)">
     <defs>
      <path d="M 9.8125 72.90625 
L 24.515625 72.90625 
L 43.109375 23.296875 
L 61.8125 72.90625 
L 76.515625 72.90625 
L 76.515625 0 
L 66.890625 0 
L 66.890625 64.015625 
L 48.09375 14.015625 
L 38.1875 14.015625 
L 19.390625 64.015625 
L 19.390625 0 
L 9.8125 0 
z
" id="DejaVuSans-77"/>
      <path d="M 8.5 21.578125 
L 8.5 54.6875 
L 17.484375 54.6875 
L 17.484375 21.921875 
Q 17.484375 14.15625 20.5 10.265625 
Q 23.53125 6.390625 29.59375 6.390625 
Q 36.859375 6.390625 41.078125 11.03125 
Q 45.3125 15.671875 45.3125 23.6875 
L 45.3125 54.6875 
L 54.296875 54.6875 
L 54.296875 0 
L 45.3125 0 
L 45.3125 8.40625 
Q 42.046875 3.421875 37.71875 1 
Q 33.40625 -1.421875 27.6875 -1.421875 
Q 18.265625 -1.421875 13.375 4.4375 
Q 8.5 10.296875 8.5 21.578125 
z
M 31.109375 56 
z
" id="DejaVuSans-117"/>
      <path d="M 52 44.1875 
Q 55.375 50.25 60.0625 53.125 
Q 64.75 56 71.09375 56 
Q 79.640625 56 84.28125 50.015625 
Q 88.921875 44.046875 88.921875 33.015625 
L 88.921875 0 
L 79.890625 0 
L 79.890625 32.71875 
Q 79.890625 40.578125 77.09375 44.375 
Q 74.3125 48.1875 68.609375 48.1875 
Q 61.625 48.1875 57.5625 43.546875 
Q 53.515625 38.921875 53.515625 30.90625 
L 53.515625 0 
L 44.484375 0 
L 44.484375 32.71875 
Q 44.484375 40.625 41.703125 44.40625 
Q 38.921875 48.1875 33.109375 48.1875 
Q 26.21875 48.1875 22.15625 43.53125 
Q 18.109375 38.875 18.109375 30.90625 
L 18.109375 0 
L 9.078125 0 
L 9.078125 54.6875 
L 18.109375 54.6875 
L 18.109375 46.1875 
Q 21.1875 51.21875 25.484375 53.609375 
Q 29.78125 56 35.6875 56 
Q 41.65625 56 45.828125 52.96875 
Q 50 49.953125 52 44.1875 
z
" id="DejaVuSans-109"/>
     </defs>
     <use xlink:href="#DejaVuSans-77"/>
     <use x="86.279297" xlink:href="#DejaVuSans-101"/>
     <use x="147.802734" xlink:href="#DejaVuSans-100"/>
     <use x="211.279297" xlink:href="#DejaVuSans-105"/>
     <use x="239.0625" xlink:href="#DejaVuSans-117"/>
     <use x="302.441406" xlink:href="#DejaVuSans-109"/>
    </g>
   </g>
   <g id="text_17">
    <!-- Poor -->
    <g style="fill:#8b0000;" transform="translate(243.13604 227.020426)rotate(-90)scale(0.12 -0.12)">
     <use xlink:href="#DejaVuSans-80"/>
     <use x="56.677734" xlink:href="#DejaVuSans-111"/>
     <use x="117.859375" xlink:href="#DejaVuSans-111"/>
     <use x="179.041016" xlink:href="#DejaVuSans-114"/>
    </g>
   </g>
   <g id="text_18">
    <!-- Very Poor -->
    <g style="fill:#8b0000;" transform="translate(262.50927 227.020426)rotate(-90)scale(0.12 -0.12)">
     <use xlink:href="#DejaVuSans-86"/>
     <use x="60.658203" xlink:href="#DejaVuSans-101"/>
     <use x="122.181641" xlink:href="#DejaVuSans-114"/>
     <use x="163.294922" xlink:href="#DejaVuSans-121"/>
     <use x="222.474609" xlink:href="#DejaVuSans-32"/>
     <use x="254.261719" xlink:href="#DejaVuSans-80"/>
     <use x="310.939453" xlink:href="#DejaVuSans-111"/>
     <use x="372.121094" xlink:href="#DejaVuSans-111"/>
     <use x="433.302734" xlink:href="#DejaVuSans-114"/>
    </g>
   </g>
   <g id="patch_7">
    <path d="M 229.965852 171.302412 
Q 229.965852 192.130441 229.965852 212.958471 
L 235.965852 212.958471 
Q 231.965852 220.959235 227.965852 228.96 
Q 223.965852 220.959235 219.965852 212.958471 
L 225.965852 212.958471 
Q 225.965852 192.130441 225.965852 171.302412 
L 229.965852 171.302412 
z
" style="stroke:#000000;stroke-linecap:round;stroke-width:1.5;"/>
   </g>
   <g id="text_19">
    <g id="patch_8">
     <path d="M 205.645852 164.24177 
L 319.361477 164.24177 
Q 322.361477 164.24177 322.361477 161.24177 
L 322.361477 129.16802 
Q 322.361477 126.16802 319.361477 126.16802 
L 205.645852 126.16802 
Q 202.645852 126.16802 202.645852 129.16802 
L 202.645852 161.24177 
Q 202.645852 164.24177 205.645852 164.24177 
z
" style="fill:#f5deb3;opacity:0.7;stroke:#000000;stroke-linejoin:miter;"/>
    </g>
    <!-- &gt;6GVW -->
    <g transform="translate(205.645852 136.766458)scale(0.1 -0.1)">
     <defs>
      <path d="M 10.59375 49.21875 
L 10.59375 58.109375 
L 73.1875 35.40625 
L 73.1875 27.296875 
L 10.59375 4.59375 
L 10.59375 13.484375 
L 60.890625 31.296875 
z
" id="DejaVuSans-62"/>
      <path d="M 3.328125 72.90625 
L 13.28125 72.90625 
L 28.609375 11.28125 
L 43.890625 72.90625 
L 54.984375 72.90625 
L 70.3125 11.28125 
L 85.59375 72.90625 
L 95.609375 72.90625 
L 77.296875 0 
L 64.890625 0 
L 49.515625 63.28125 
L 33.984375 0 
L 21.578125 0 
z
" id="DejaVuSans-87"/>
     </defs>
     <use xlink:href="#DejaVuSans-62"/>
     <use x="83.789062" xlink:href="#DejaVuSans-54"/>
     <use x="147.412109" xlink:href="#DejaVuSans-71"/>
     <use x="224.902344" xlink:href="#DejaVuSans-86"/>
     <use x="293.310547" xlink:href="#DejaVuSans-87"/>
    </g>
    <!-- Predicted R-Free: -->
    <g transform="translate(205.645852 147.96427)scale(0.1 -0.1)">
     <defs>
      <path d="M 48.78125 52.59375 
L 48.78125 44.1875 
Q 44.96875 46.296875 41.140625 47.34375 
Q 37.3125 48.390625 33.40625 48.390625 
Q 24.65625 48.390625 19.8125 42.84375 
Q 14.984375 37.3125 14.984375 27.296875 
Q 14.984375 17.28125 19.8125 11.734375 
Q 24.65625 6.203125 33.40625 6.203125 
Q 37.3125 6.203125 41.140625 7.25 
Q 44.96875 8.296875 48.78125 10.40625 
L 48.78125 2.09375 
Q 45.015625 0.34375 40.984375 -0.53125 
Q 36.96875 -1.421875 32.421875 -1.421875 
Q 20.0625 -1.421875 12.78125 6.34375 
Q 5.515625 14.109375 5.515625 27.296875 
Q 5.515625 40.671875 12.859375 48.328125 
Q 20.21875 56 33.015625 56 
Q 37.15625 56 41.109375 55.140625 
Q 45.0625 54.296875 48.78125 52.59375 
z
" id="DejaVuSans-99"/>
      <path d="M 11.71875 12.40625 
L 22.015625 12.40625 
L 22.015625 0 
L 11.71875 0 
z
M 11.71875 51.703125 
L 22.015625 51.703125 
L 22.015625 39.3125 
L 11.71875 39.3125 
z
" id="DejaVuSans-58"/>
     </defs>
     <use xlink:href="#DejaVuSans-80"/>
     <use x="58.552734" xlink:href="#DejaVuSans-114"/>
     <use x="97.416016" xlink:href="#DejaVuSans-101"/>
     <use x="158.939453" xlink:href="#DejaVuSans-100"/>
     <use x="222.416016" xlink:href="#DejaVuSans-105"/>
     <use x="250.199219" xlink:href="#DejaVuSans-99"/>
     <use x="305.179688" xlink:href="#DejaVuSans-116"/>
     <use x="344.388672" xlink:href="#DejaVuSans-101"/>
     <use x="405.912109" xlink:href="#DejaVuSans-100"/>
     <use x="469.388672" xlink:href="#DejaVuSans-32"/>
     <use x="501.175781" xlink:href="#DejaVuSans-82"/>
     <use x="566.658203" xlink:href="#DejaVuSans-45"/>
     <use x="602.742188" xlink:href="#DejaVuSans-70"/>
     <use x="653.011719" xlink:href="#DejaVuSans-114"/>
     <use x="691.875" xlink:href="#DejaVuSans-101"/>
     <use x="753.398438" xlink:href="#DejaVuSans-101"/>
     <use x="814.921875" xlink:href="#DejaVuSans-58"/>
    </g>
    <!-- 0.23 (Medium; 52%ile) -->
    <g transform="translate(205.645852 159.162083)scale(0.1 -0.1)">
     <defs>
      <path d="M 31 75.875 
Q 24.46875 64.65625 21.28125 53.65625 
Q 18.109375 42.671875 18.109375 31.390625 
Q 18.109375 20.125 21.3125 9.0625 
Q 24.515625 -2 31 -13.1875 
L 23.1875 -13.1875 
Q 15.875 -1.703125 12.234375 9.375 
Q 8.59375 20.453125 8.59375 31.390625 
Q 8.59375 42.28125 12.203125 53.3125 
Q 15.828125 64.359375 23.1875 75.875 
z
" id="DejaVuSans-40"/>
      <path d="M 11.71875 51.703125 
L 22.015625 51.703125 
L 22.015625 39.3125 
L 11.71875 39.3125 
z
M 11.71875 12.40625 
L 22.015625 12.40625 
L 22.015625 4 
L 14.015625 -11.625 
L 7.71875 -11.625 
L 11.71875 4 
z
" id="DejaVuSans-59"/>
      <path d="M 72.703125 32.078125 
Q 68.453125 32.078125 66.03125 28.46875 
Q 63.625 24.859375 63.625 18.40625 
Q 63.625 12.0625 66.03125 8.421875 
Q 68.453125 4.78125 72.703125 4.78125 
Q 76.859375 4.78125 79.265625 8.421875 
Q 81.6875 12.0625 81.6875 18.40625 
Q 81.6875 24.8125 79.265625 28.4375 
Q 76.859375 32.078125 72.703125 32.078125 
z
M 72.703125 38.28125 
Q 80.421875 38.28125 84.953125 32.90625 
Q 89.5 27.546875 89.5 18.40625 
Q 89.5 9.28125 84.9375 3.921875 
Q 80.375 -1.421875 72.703125 -1.421875 
Q 64.890625 -1.421875 60.34375 3.921875 
Q 55.8125 9.28125 55.8125 18.40625 
Q 55.8125 27.59375 60.375 32.9375 
Q 64.9375 38.28125 72.703125 38.28125 
z
M 22.3125 68.015625 
Q 18.109375 68.015625 15.6875 64.375 
Q 13.28125 60.75 13.28125 54.390625 
Q 13.28125 47.953125 15.671875 44.328125 
Q 18.0625 40.71875 22.3125 40.71875 
Q 26.5625 40.71875 28.96875 44.328125 
Q 31.390625 47.953125 31.390625 54.390625 
Q 31.390625 60.6875 28.953125 64.34375 
Q 26.515625 68.015625 22.3125 68.015625 
z
M 66.40625 74.21875 
L 74.21875 74.21875 
L 28.609375 -1.421875 
L 20.796875 -1.421875 
z
M 22.3125 74.21875 
Q 30.03125 74.21875 34.609375 68.875 
Q 39.203125 63.53125 39.203125 54.390625 
Q 39.203125 45.171875 34.640625 39.84375 
Q 30.078125 34.515625 22.3125 34.515625 
Q 14.546875 34.515625 10.03125 39.859375 
Q 5.515625 45.21875 5.515625 54.390625 
Q 5.515625 63.484375 10.046875 68.84375 
Q 14.59375 74.21875 22.3125 74.21875 
z
" id="DejaVuSans-37"/>
      <path d="M 8.015625 75.875 
L 15.828125 75.875 
Q 23.140625 64.359375 26.78125 53.3125 
Q 30.421875 42.28125 30.421875 31.390625 
Q 30.421875 20.453125 26.78125 9.375 
Q 23.140625 -1.703125 15.828125 -13.1875 
L 8.015625 -13.1875 
Q 14.5 -2 17.703125 9.0625 
Q 20.90625 20.125 20.90625 31.390625 
Q 20.90625 42.671875 17.703125 53.65625 
Q 14.5 64.65625 8.015625 75.875 
z
" id="DejaVuSans-41"/>
     </defs>
     <use xlink:href="#DejaVuSans-48"/>
     <use x="63.623047" xlink:href="#DejaVuSans-46"/>
     <use x="95.410156" xlink:href="#DejaVuSans-50"/>
     <use x="159.033203" xlink:href="#DejaVuSans-51"/>
     <use x="222.65625" xlink:href="#DejaVuSans-32"/>
     <use x="254.443359" xlink:href="#DejaVuSans-40"/>
     <use x="293.457031" xlink:href="#DejaVuSans-77"/>
     <use x="379.736328" xlink:href="#DejaVuSans-101"/>
     <use x="441.259766" xlink:href="#DejaVuSans-100"/>
     <use x="504.736328" xlink:href="#DejaVuSans-105"/>
     <use x="532.519531" xlink:href="#DejaVuSans-117"/>
     <use x="595.898438" xlink:href="#DejaVuSans-109"/>
     <use x="693.310547" xlink:href="#DejaVuSans-59"/>
     <use x="727.001953" xlink:href="#DejaVuSans-32"/>
     <use x="758.789062" xlink:href="#DejaVuSans-53"/>
     <use x="822.412109" xlink:href="#DejaVuSans-50"/>
     <use x="886.035156" xlink:href="#DejaVuSans-37"/>
     <use x="981.054688" xlink:href="#DejaVuSans-105"/>
     <use x="1008.837891" xlink:href="#DejaVuSans-108"/>
     <use x="1036.621094" xlink:href="#DejaVuSans-101"/>
     <use x="1098.144531" xlink:href="#DejaVuSans-41"/>
    </g>
   </g>
  </g>
 </g>
 <defs>
  <clipPath id="p296ccde279">
   <rect height="221.76" width="446.4" x="49.564375" y="7.2"/>
  </clipPath>
 </defs>
</svg>
